<?xml version="1.0" standalone="no"?>
<!DOCTYPE svg PUBLIC "-//W3C//DTD SVG 20010904//EN"
 "http://www.w3.org/TR/2001/REC-SVG-20010904/DTD/svg10.dtd">
<svg version="1.0" xmlns="http://www.w3.org/2000/svg"
 width="512.000000pt" height="512.000000pt" viewBox="0 0 512.000000 512.000000"
 preserveAspectRatio="xMidYMid meet">
<metadata>
Created by potrace 1.14, written by Peter Selinger 2001-2017
</metadata>
<g transform="translate(0.000000,512.000000) scale(0.100000,-0.100000)"
fill="#000000" stroke="none">
<path d="M2378 5115 c-1 -1 -32 -6 -68 -9 -36 -4 -74 -9 -85 -11 -28 -7 -75
-15 -108 -20 -60 -9 -228 -58 -330 -96 -308 -115 -564 -279 -798 -511 -428
-423 -664 -991 -663 -1588 1 -102 9 -229 19 -280 3 -14 8 -45 11 -70 13 -110
82 -356 152 -545 55 -146 188 -431 221 -469 9 -10 15 -20 13 -22 -2 -4 2 -13
56 -100 18 -28 32 -56 32 -62 0 -7 4 -12 8 -12 5 0 14 -10 21 -22 27 -53 201
-299 233 -331 10 -10 18 -21 18 -25 0 -4 12 -21 28 -37 15 -17 54 -62 86 -100
127 -149 345 -355 481 -455 39 -28 78 -57 88 -65 9 -8 19 -15 22 -15 2 0 36
-21 75 -46 150 -97 367 -186 515 -210 61 -11 262 -12 310 -3 28 6 61 13 75 15
94 19 300 105 432 182 147 84 362 256 518 413 75 76 243 263 272 304 4 5 20
26 36 45 16 19 53 69 83 110 29 41 57 77 61 78 5 2 8 8 8 12 0 5 19 37 43 72
39 57 177 285 177 293 0 2 15 30 34 63 19 33 32 62 30 65 -3 2 2 10 11 17 8 7
15 17 15 22 0 5 14 39 31 76 96 207 186 475 224 670 37 181 43 257 40 467 -2
110 -6 216 -9 235 -3 19 -8 52 -11 72 -14 95 -60 281 -89 363 -47 128 -66 176
-113 273 -53 113 -167 304 -184 310 -5 2 -9 8 -9 14 0 16 -90 122 -116 136
-47 25 -104 -12 -104 -68 0 -14 21 -52 50 -90 28 -36 53 -69 57 -75 64 -85
186 -309 228 -420 15 -38 31 -79 35 -90 8 -17 21 -59 25 -75 1 -3 7 -25 15
-50 16 -53 16 -55 25 -99 3 -19 7 -37 9 -40 4 -7 11 -45 30 -171 12 -80 15
-429 3 -490 -2 -14 -8 -47 -12 -75 -4 -27 -9 -59 -12 -70 -2 -11 -6 -31 -9
-45 -3 -14 -7 -33 -10 -42 -3 -9 -7 -25 -9 -37 -11 -57 -82 -285 -104 -336 -5
-11 -19 -45 -31 -75 -61 -153 -168 -365 -263 -520 -40 -65 -125 -197 -139
-215 -5 -5 -47 -61 -94 -124 -47 -63 -109 -142 -137 -175 -71 -84 -321 -333
-382 -381 -27 -22 -52 -43 -55 -46 -22 -24 -235 -169 -249 -169 -5 0 -11 -3
-13 -7 -1 -5 -39 -27 -83 -50 -95 -49 -261 -108 -336 -119 -109 -17 -305 -7
-350 17 -10 5 -19 7 -19 5 0 -3 -37 8 -82 25 -93 34 -298 138 -298 150 0 5 -5
9 -11 9 -12 0 -103 60 -107 72 -2 4 -8 8 -14 8 -12 0 -117 85 -222 180 -168
153 -399 416 -518 594 -23 34 -45 62 -50 64 -4 2 -8 8 -8 13 0 6 -17 36 -38
67 -194 287 -377 699 -454 1021 -20 88 -22 94 -38 191 -29 177 -31 451 -5 581
3 13 8 43 11 65 2 23 7 51 9 63 3 12 7 30 9 41 44 196 136 429 242 609 29 51
123 191 138 208 6 6 26 31 45 55 53 66 259 268 326 319 237 180 506 317 740
375 232 57 327 69 560 69 171 -1 258 -7 350 -25 28 -6 61 -13 75 -15 14 -3 38
-8 53 -10 72 -14 308 -99 422 -154 173 -82 376 -218 493 -328 19 -19 45 -36
58 -39 21 -5 83 19 85 34 0 4 3 20 5 35 5 31 -26 67 -129 152 -174 142 -385
265 -599 349 -109 43 -136 52 -175 61 -10 3 -50 14 -90 25 -64 18 -168 38
-288 56 -42 6 -451 15 -457 9z"/>
<path d="M1248 2979 c-235 -36 -369 -205 -363 -457 2 -68 5 -85 21 -97 30 -23
63 -29 90 -15 31 17 37 38 39 135 2 86 26 158 68 203 52 56 141 87 242 84 37
0 51 -2 114 -16 100 -22 214 -79 361 -183 56 -40 194 -187 247 -263 99 -144
155 -294 156 -420 1 -97 -3 -121 -32 -177 -59 -117 -207 -162 -388 -118 -67
16 -258 102 -284 127 -8 7 -27 22 -43 32 -94 60 -232 207 -306 326 -60 96 -80
119 -111 124 -27 4 -60 -16 -77 -48 -11 -22 1 -70 24 -97 8 -8 14 -19 14 -24
0 -4 11 -23 25 -41 14 -18 25 -37 25 -43 0 -6 4 -11 8 -11 4 0 16 -14 25 -30
23 -38 186 -204 252 -256 141 -112 306 -191 435 -209 78 -12 203 -12 218 -2 6
5 12 7 12 4 0 -3 26 2 57 10 114 30 188 83 241 172 15 25 27 48 28 51 0 3 3
12 6 20 25 65 32 227 14 311 -25 115 -114 311 -168 373 -10 11 -18 23 -18 26
0 7 -9 18 -98 120 -102 117 -236 222 -378 294 -62 31 -174 73 -214 81 -113 21
-172 24 -242 14z"/>
<path d="M3778 2985 c-2 -1 -29 -5 -61 -9 -248 -26 -567 -238 -759 -504 -81
-112 -165 -286 -183 -382 -36 -183 -16 -318 64 -433 68 -100 224 -165 386
-161 65 1 228 35 264 55 9 4 50 24 91 44 386 190 672 591 673 945 1 261 -160
429 -429 445 -24 1 -45 1 -46 0z m176 -193 c33 -12 68 -31 78 -42 33 -35 69
-126 72 -182 3 -55 -15 -171 -35 -223 -84 -216 -221 -395 -410 -533 -73 -52
-214 -127 -274 -144 -22 -6 -42 -12 -45 -13 -3 -1 -25 -5 -50 -9 -186 -29
-309 27 -361 164 -18 46 -20 70 -16 150 8 167 90 344 237 514 149 172 370 309
535 333 22 3 41 6 43 8 1 1 40 1 85 0 54 -1 102 -9 141 -23z"/>
<path d="M2293 1345 c-40 -28 -37 -88 6 -123 87 -70 243 -103 369 -78 48 9
140 54 173 83 54 48 30 126 -40 131 -18 1 -47 -9 -78 -28 -93 -58 -191 -60
-297 -6 -78 40 -101 43 -133 21z"/>
</g>
</svg>
